<svg width="18" height="18" viewBox="0 0 18 18" fill="none" xmlns="http://www.w3.org/2000/svg">
<path d="M14.8021 11.8477L13.3606 10.4062L14.8021 8.96477C15.1808 8.58611 15.4811 8.13658 15.6861 7.64184C15.891 7.14709 15.9965 6.61683 15.9965 6.08133C15.9965 5.54582 15.891 5.01556 15.6861 4.52082C15.4811 4.02608 15.1808 3.57654 14.8021 3.19788C14.4234 2.81923 13.9739 2.51886 13.4792 2.31393C12.9844 2.109 12.4542 2.00352 11.9187 2.00352C11.3832 2.00352 10.8529 2.109 10.3581 2.31393C9.86341 2.51886 9.41387 2.81923 9.03522 3.19788L7.59375 4.63935L6.15228 3.19788L7.59375 1.75642C8.74398 0.624773 10.2948 -0.00651952 11.9083 5.07767e-05C13.5219 0.00662107 15.0675 0.650522 16.2085 1.7915C17.3495 2.93247 17.9934 4.47808 17.9999 6.09164C18.0065 7.70521 17.3752 9.25601 16.2436 10.4062L14.8021 11.8477ZM11.9181 14.7317L10.4767 16.1731C9.91041 16.7487 9.23579 17.2065 8.49172 17.52C7.74766 17.8335 6.94888 17.9966 6.14146 17.9999C5.33403 18.0032 4.53395 17.8466 3.78736 17.5391C3.04076 17.2317 2.36243 16.7794 1.7915 16.2085C1.22056 15.6376 0.768311 14.9592 0.460841 14.2126C0.153371 13.466 -0.00323703 12.666 5.07114e-05 11.8585C0.00333846 11.0511 0.166457 10.2523 0.479996 9.50826C0.793536 8.7642 1.25129 8.08957 1.82686 7.5233L3.26833 6.08184L4.70979 7.5233L3.26833 8.96477C2.88967 9.34343 2.5893 9.79296 2.38437 10.2877C2.17944 10.7824 2.07397 11.3127 2.07397 11.8482C2.07397 12.3837 2.17944 12.914 2.38437 13.4087C2.5893 13.9035 2.88967 14.353 3.26833 14.7317C3.64699 15.1103 4.09652 15.4107 4.59126 15.6156C5.086 15.8205 5.61627 15.926 6.15177 15.926C6.68728 15.926 7.21754 15.8205 7.71228 15.6156C8.20702 15.4107 8.65656 15.1103 9.03522 14.7317L10.4767 13.2902L11.9181 14.7317ZM11.9181 4.63935L13.3606 6.08184L6.15228 13.2892L4.70979 11.8477L11.9181 4.64037V4.63935Z" fill="white"/>
</svg>
