<svg width="21" height="15" viewBox="0 0 21 15" fill="none" xmlns="http://www.w3.org/2000/svg">
<path d="M16.1898 1.31728C13.9377 1.31728 12.238 2.80454 11.5581 5.14165C10.4958 3.48443 9.64591 1.61473 9.17849 0H6.79888V6.24647C6.79888 7.47877 5.77905 8.4986 4.54675 8.4986C3.31445 8.4986 2.29462 7.47877 2.29462 6.24647V0.0424927H0V6.28896C0 8.88103 2.08216 10.9632 4.63174 10.9632C7.18132 10.9632 9.26347 8.88103 9.26347 6.28896V5.22664C9.73089 6.16148 10.3258 7.18131 10.9632 8.07367L9.47594 15H11.898L12.9179 9.94336C13.8527 10.5383 14.915 10.8782 16.1898 10.8782C18.7819 10.8782 20.9066 8.75356 20.9066 6.034C20.9066 3.44193 18.7819 1.31728 16.1898 1.31728ZM16.1898 8.4986C15.255 8.4986 14.2776 8.07367 13.5128 7.43627L13.7677 6.50143V6.45893C13.9377 5.4391 14.4901 3.73938 16.2323 3.73938C17.5496 3.73938 18.6119 4.80171 18.6119 6.11899C18.5694 7.43627 17.4221 8.4986 16.1898 8.4986Z" fill="white"/>
</svg>
